<svg width="155" height="162" viewBox="0 0 155 162" fill="none" xmlns="http://www.w3.org/2000/svg">
<path d="M78.2859 0.524025C70.384 1.93893 64.4155 4.61578 59.8762 8.78402C53.9918 14.176 52.4366 16.7763 48.3176 28.3633C45.6696 35.8967 45.3333 36.5468 43.6521 38.0764L41.8448 39.7208L43.7362 41.3269C45.3754 42.78 45.8377 43.5449 47.9393 48.8603C53.4874 62.7417 56.5137 67.1394 63.0705 70.8487C70.0898 74.8258 75.9741 76.2024 84.2963 75.8965C90.0966 75.7053 93.8374 75.017 97.5362 73.5256C108.002 69.3191 113.718 62.3211 118.594 47.7131C119.687 44.5391 121.368 41.5946 122.671 40.715C123.343 40.2561 123.848 39.7973 123.848 39.6825C123.848 39.5296 123.091 38.6883 122.166 37.8087C119.771 35.5525 119.056 34.0611 117.375 27.9044C113.76 14.6349 106.405 6.29838 94.8041 2.20661C88.2893 -0.0495911 83.9601 -0.508476 78.2859 0.524025ZM88.1212 3.54504C94.2577 6.37486 97.7463 11.1549 100.478 20.3327C102.412 26.7954 102.916 30.0841 103.126 37.7705C103.336 44.7686 103.294 45.5716 102.244 50.4664C101.613 53.3727 100.731 56.8909 100.268 58.3058C98.1246 64.6537 93.5432 70.4663 89.0879 72.4166C87.2385 73.2579 86.1457 73.4491 83.5818 73.4873C80.7657 73.5256 80.0091 73.3726 77.8655 72.3784C71.2666 69.2809 66.4751 60.7149 64.3315 48.2102C62.4821 37.0822 64.6257 21.7476 69.3332 12.9905C71.6029 8.70754 75.806 4.65402 79.2946 3.39207C82.0266 2.43606 85.8515 2.4743 88.1212 3.54504Z" fill="black"/>
<path d="M11.5402 41.0975C10.5314 42.0917 0.822228 53.8316 0.107696 54.9024C-0.312616 55.5142 0.57004 56.5085 1.49473 56.5085C1.91504 56.5085 2.6716 56.0878 3.21801 55.5524C3.89051 54.9024 4.60504 54.5964 5.27754 54.6729C7.25301 54.9024 7.33707 56.0496 7.42113 79.4529L7.5052 101.059L10.4054 103.277C14.0621 106.068 17.5086 109.816 19.5261 113.181C20.3668 114.634 21.2074 115.782 21.4175 115.782C21.5857 115.782 21.7118 103.124 21.7118 87.6747C21.7118 56.9291 21.6277 58.0381 24.1496 55.6289C26.7135 53.1433 29.2774 52.8374 32.3036 54.5582C37.4735 57.541 40.836 66.1451 38.6083 70.734C37.3474 73.3726 34.7414 74.5963 34.7414 72.5696C34.7414 71.5371 33.3124 70.887 32.2196 71.4224C29.2774 72.8755 30.3282 77.5409 33.6066 77.5409C37.2633 77.5409 40.92 72.9137 41.6766 67.2924L41.9708 65.3038H43.526C44.955 65.3038 45.1652 65.1509 46.0058 63.583C47.561 60.6767 47.1827 58.344 44.3246 53.1433C42.0128 48.9368 39.1127 47.4454 34.195 47.8278C31.0007 48.0955 26.1671 50.5812 23.3089 53.411C21.1654 55.5524 20.4929 55.5907 20.4508 53.6022C20.4508 52.5697 18.3072 46.7953 17.1724 44.845C16.2897 43.2389 13.4736 40.0649 12.9272 40.0649C12.7591 40.0649 12.1286 40.5238 11.5402 41.0975Z" fill="black"/>
<path d="M151.462 49.7016C150.369 50.4664 149.907 52.149 149.907 55.2083C149.907 57.2733 149.697 58.4587 149.108 59.5295C148.1 61.2885 145.158 63.7742 144.023 63.7742C141.921 63.7742 142.131 60.4473 144.317 58.6882C145.872 57.4645 147.385 55.0935 147.385 53.9081C147.385 53.4874 147.091 52.9521 146.755 52.6844C145.704 51.8813 144.863 52.8756 144.863 54.9788C144.863 56.8526 143.686 58.8029 142.552 58.8029C142.215 58.8029 139.315 57.3498 136.037 55.5524C132.758 53.7551 129.984 52.302 129.816 52.302C129.648 52.302 128.555 52.9903 127.42 53.8698C124.436 56.126 123.385 56.5085 120.317 56.5085C118.804 56.5085 117.459 56.6614 117.333 56.8909C117.207 57.0821 117.543 58.8794 118.131 60.7914C118.72 62.7417 119.939 66.9099 120.906 70.0457L122.587 75.7435L119.855 79.4147C114.349 86.8716 112.289 92.5312 112.289 100.103C112.289 104.462 112.415 105.189 113.634 108.325C115.105 112.225 118.594 118.076 119.392 118.076C119.687 118.076 121.284 116.585 122.881 114.711C129.564 107.177 133.137 103.353 133.431 103.468C133.599 103.545 133.683 104.003 133.599 104.501C133.389 105.763 134.145 105.992 134.818 104.845C135.532 103.583 137.76 102.015 140.576 100.715L142.762 99.7205V84.5007C142.762 74.5963 142.93 68.7837 143.224 67.7895C143.686 66.2598 144.401 65.5715 149.361 61.5945C152.387 59.1853 154.11 56.3173 154.404 53.0668C154.615 51.193 154.531 50.6194 153.9 50.0075C153.017 49.128 152.429 49.0515 151.462 49.7016ZM127 63.0476L133.515 66.5275V74.1374C133.515 78.3439 133.389 81.7473 133.221 81.7473C133.011 81.7473 130.867 80.2942 128.387 78.4969C123.301 74.8258 123.427 75.0935 121.746 67.4071C121.284 65.3038 120.737 62.9711 120.485 62.2446C120.023 60.7914 119.939 59.5677 120.275 59.5677C120.401 59.5677 123.427 61.1356 127 63.0476ZM128.807 80.9825L133.515 84.4624V92.2635V100.065L131.035 102.856C126.243 108.248 126.454 108.057 125.697 107.177C124.268 105.457 121.704 100.103 121.074 97.426C120.233 93.6785 120.275 88.1335 121.284 83.8506C122.082 80.256 123.133 77.5409 123.722 77.5409C123.932 77.5409 126.201 79.1087 128.807 80.9825Z" fill="black"/>
<path d="M66.8113 79.6441C65.088 82.8563 60.3385 88.9748 58.4471 90.5045C57.3963 91.3458 55.631 92.3018 54.5802 92.646C53.4874 93.0284 52.1844 93.449 51.638 93.6402L50.6713 93.9844L50.7974 115.858L50.9235 137.77L52.1004 140.256C54.1599 144.692 57.8166 148.248 61.011 148.898L62.2719 149.166L61.2632 148.172C59.708 146.604 59.0776 143.736 58.8254 136.317C58.5312 128.554 58.4471 128.745 61.9357 130.925L64.1213 132.302L65.7605 131.04C66.6432 130.313 69.2912 128.21 71.6449 126.374L75.9321 123.009V106.145C75.9321 87.8659 75.806 86.5274 73.5363 82.8946C72.1913 80.7531 69.2491 77.9233 68.3665 77.9233C68.0302 77.9615 67.3157 78.7263 66.8113 79.6441ZM66.8533 87.9806C67.694 89.0513 67.736 89.472 67.8621 106.26C67.9041 115.705 67.8201 123.43 67.6519 123.392C67.4838 123.392 65.4243 122.474 63.1126 121.403L58.9094 119.414L58.7833 106.413L58.6993 93.449L60.1283 91.4605C63.659 86.6039 65.1301 85.8773 66.8533 87.9806Z" fill="black"/>
<path d="M97.4521 79.7206C96.7796 80.7531 95.2245 83.0858 93.9635 84.9978C92.7026 86.8716 90.9793 89.0896 90.0966 89.8926C88.4574 91.384 83.9181 93.602 82.5731 93.602C81.8585 93.602 81.8165 94.9022 81.8165 115.17C81.8165 135.629 81.8585 136.852 82.6571 139.147C83.1195 140.485 84.0441 142.474 84.7587 143.583C86.2298 145.877 89.8024 148.554 91.946 148.898L93.3751 149.166L92.3663 148.286C90.9373 147.024 90.3068 145.342 89.8024 141.518C89.2981 137.388 89.256 129.663 89.7604 129.395C89.9285 129.281 91.1895 129.892 92.4924 130.734L94.8882 132.302L98.4188 129.587C100.352 128.057 103.126 125.877 104.513 124.73L107.035 122.588V106.145V89.7014L105.984 86.5274C105.396 84.8066 104.345 82.5886 103.673 81.6326C102.412 79.95 99.932 77.9233 99.1334 77.9233C98.8812 77.9233 98.1666 78.7263 97.4521 79.7206ZM97.0738 87.407C98.9652 89.319 99.0493 90.0073 99.0493 107.101C99.0493 116.011 98.9232 123.392 98.7971 123.506C98.671 123.659 97.4941 123.162 96.1912 122.474C94.8882 121.785 92.8707 120.791 91.6938 120.294L89.5923 119.414L89.4662 106.642L89.3821 93.8697L90.3909 92.2635C91.6938 90.2368 95.1824 86.7186 95.8549 86.7186C96.1491 86.7186 96.6956 87.0246 97.0738 87.407Z" fill="black"/>
<path d="M48.906 84.6536C48.7378 84.8066 48.6117 85.6861 48.6117 86.6039C48.6117 87.5217 48.3596 88.8219 48.0233 89.5485C47.4769 90.7339 45.5435 92.4548 44.7869 92.4548C43.9463 92.4548 44.4927 90.3515 45.6696 89.1278C47.0146 87.7511 47.3508 86.3362 46.3 86.3362C45.9217 86.3362 45.6696 86.6804 45.6696 87.254C45.6696 88.6307 45.2492 89.3955 44.4927 89.3955C44.1564 89.3955 42.3911 88.6307 40.5838 87.6747C36.9691 85.7626 36.6328 85.6861 36.2546 86.5274C35.9183 87.3305 33.4385 88.2483 31.5891 88.2483C29.8658 88.2483 29.7817 88.6307 30.7064 91.3458C31.0427 92.2636 31.7152 94.2521 32.2196 95.7052L33.1442 98.3821L31.2528 100.982C27.5961 105.915 26.4193 110.963 27.7643 115.743C28.5208 118.382 30.4542 121.938 31.2528 122.168C31.505 122.244 33.3124 120.523 35.2878 118.305C37.8517 115.399 38.9446 114.405 39.2808 114.711C39.6171 115.017 40.0374 114.864 40.836 114.175C41.4244 113.64 42.4752 112.99 43.1477 112.722L44.4086 112.263V103.889C44.4086 98.9174 44.5767 95.1316 44.871 94.4815C45.1232 93.9079 46.258 92.646 47.3928 91.7282C48.5277 90.8104 49.8727 89.3955 50.335 88.5542C51.3858 86.6422 51.2597 84.6536 50.0828 84.5007C49.5785 84.4242 49.0741 84.5007 48.906 84.6536ZM35.7922 92.0723L39.3649 94.0226V97.6173C39.3649 99.6058 39.1967 101.288 39.0286 101.403C38.8605 101.518 37.5996 100.791 36.2966 99.8735C34.195 98.3438 33.8168 97.8467 33.2283 95.9729C32.8921 94.7874 32.3877 93.2961 32.1775 92.6842C31.7572 91.4987 31.6732 90.1603 32.0094 90.1603C32.0935 90.1603 33.8168 91.0398 35.7922 92.0723ZM36.4227 101.25C37.6836 102.091 38.8605 103.009 39.0286 103.277C39.533 104.003 39.4069 111.537 38.8605 112.455C38.188 113.64 35.54 116.546 35.1617 116.546C34.9936 116.546 34.2371 115.284 33.4805 113.755C31.9253 110.619 31.421 106.833 32.1355 103.698C32.7239 101.25 33.3544 99.7205 33.8168 99.7205C34.0269 99.7205 35.2038 100.409 36.4227 101.25Z" fill="black"/>
<path d="M100.731 152.072C100.184 153.028 100.184 153.105 100.941 153.793C101.487 154.252 101.529 154.558 101.151 155.208C100.352 156.508 101.319 157.043 102.37 155.896C103.463 154.711 103.925 152.646 103.252 151.919C102.538 151.116 101.277 151.193 100.731 152.072Z" fill="black"/>
<path d="M39.2809 153.869C39.0287 155.437 39.5751 156.508 40.0374 155.437C40.2055 155.017 40.794 154.787 41.7187 154.787C43.0216 154.787 43.1477 154.902 43.1477 155.934C43.1477 157.082 43.1057 157.082 40.836 157.082C39.0707 157.082 38.5243 157.196 38.5243 157.655C38.5243 158.114 39.0707 158.229 40.836 158.229H43.1477V159.95C43.1477 161.594 43.1898 161.67 44.3666 161.67C45.4594 161.67 45.5855 161.518 45.8377 159.95L46.1319 158.229H49.2843H52.3946L51.554 159.72L50.7554 161.212L52.0584 161.632C53.4454 162.091 54.0338 161.747 54.0759 160.6C54.0759 160.294 54.9165 160.141 56.8079 160.141C59.3298 160.141 59.5819 160.217 59.9602 161.097C60.2965 161.938 60.4646 161.976 61.6415 161.632C63.0705 161.173 63.1546 160.906 62.2719 159.376L61.5994 158.229H64.5837H67.5259V159.95C67.5259 161.67 67.5259 161.67 68.9969 161.67C70.468 161.67 70.468 161.67 70.468 159.95V158.229H75.0915H79.7149V159.95C79.7149 161.594 79.7569 161.67 80.9338 161.67C82.0266 161.67 82.1527 161.518 82.4049 159.95L82.6991 158.229H85.221C87.4066 158.229 87.7849 158.344 88.0791 159.07C88.7937 160.753 90.0966 161.441 92.9127 161.594C96.023 161.785 97.8724 161.097 98.8391 159.376L99.5116 158.229H105.27C110.944 158.229 112.457 158.497 111.911 159.338C111.491 159.911 109.263 159.873 106.909 159.223C105.018 158.726 105.018 158.726 104.724 159.682C104.429 160.829 104.808 161.135 107.582 161.67C112.163 162.55 115.021 161.556 115.021 159.032C115.021 158.573 115.231 158.229 115.441 158.229C115.694 158.229 115.862 157.999 115.862 157.693C115.862 157.388 115.273 157.082 114.517 156.967C112.247 156.623 107.834 155.667 107.582 155.437C107.161 155.017 107.918 154.405 108.885 154.405C109.431 154.405 110.776 154.672 111.911 154.978C114.139 155.59 114.391 155.475 114.811 153.984C115.063 153.066 114.979 152.99 113.886 152.99C113.256 152.99 111.743 152.837 110.566 152.684C106.573 152.149 104.009 153.793 104.976 156.24C105.312 157.043 105.27 157.082 102.412 157.082C99.5957 157.082 99.5116 157.082 99.2594 155.973C98.7971 154.061 96.2332 152.493 93.5852 152.493C90.6851 152.493 87.7009 154.519 87.7009 156.47C87.7009 156.967 87.1965 157.082 85.179 157.082H82.6571V155.934C82.6571 154.864 82.7832 154.787 84.1282 154.787C85.1369 154.787 85.5993 154.978 85.5993 155.361C85.5993 155.667 85.8094 155.934 86.0196 155.934C86.2718 155.934 86.4399 155.246 86.4399 154.405V152.875H83.1194C81.3121 152.875 78.9584 152.76 77.9496 152.646L76.0162 152.416L75.848 153.869C75.5959 155.437 76.1423 156.508 76.6046 155.437C76.7727 155.017 77.3612 154.787 78.2859 154.787C79.5888 154.787 79.7149 154.902 79.7149 155.934V157.082H75.0915H70.468V155.934C70.468 154.864 70.5941 154.787 71.9391 154.787C72.8638 154.787 73.4943 155.017 73.7885 155.437C74.419 156.47 74.7552 155.82 74.461 154.252L74.1668 152.875H71.0985C69.4173 152.875 67.1896 152.76 66.1388 152.646L64.2054 152.378L63.9112 153.793C63.659 155.131 64.0793 156.279 64.4576 155.246C64.6677 154.749 67.3577 154.596 67.694 155.093C67.8201 155.284 67.778 155.781 67.6519 156.24C67.4418 157.005 67.1476 157.082 64.2054 157.082H61.011L59.7501 154.864L58.4891 152.684L56.0934 152.569C54.1599 152.493 53.6555 152.569 53.6555 153.028C53.6555 153.334 53.9077 153.64 54.1599 153.716C54.5382 153.831 54.4962 154.29 53.9077 155.475L53.1091 157.082H49.5785H46.0899V155.934C46.0899 154.864 46.216 154.787 47.561 154.787C48.5698 154.787 49.0321 154.978 49.0321 155.361C49.0321 155.667 49.2423 155.934 49.4524 155.934C49.7046 155.934 49.8727 155.246 49.8727 154.405V152.875H46.5523C44.7449 152.875 42.3912 152.76 41.3824 152.646L39.449 152.416L39.2809 153.869ZM95.6027 155.399C97.4101 156.546 96.7796 157.082 93.5852 157.082C90.4749 157.082 90.0546 156.776 91.3576 155.475C92.1982 154.634 94.3418 154.558 95.6027 155.399ZM57.5644 156.317C57.7326 156.89 57.5644 157.082 56.976 157.082C56.0934 157.082 56.0513 157.043 56.4296 156.164C56.7659 155.323 57.3123 155.399 57.5644 156.317ZM96.1071 158.573C96.1071 159.147 93.7534 159.797 92.6185 159.567C92.0301 159.414 91.3155 159.07 91.0213 158.764C90.601 158.305 90.9793 158.229 93.333 158.229C94.8462 158.229 96.1071 158.382 96.1071 158.573Z" fill="black"/>
</svg>
